:version 1.10
:name ASF
:units
  mass 1
  length 1
  angle deg
:documentation
  ASF file generated by Kaydara
:root
  axis xyz
  order  tx ty tz rx ry rz
  position 0 0 0
  orientation 0 0 0
:bonedata
  begin
    id 1
    name LeftUpLegDummy
    direction 1 -2.30186e-007 -8.31532e-007
    length 2.93387
    axis 0 0 0 xyz
  end
  begin
    id 2
    name LeftUpLeg
    direction -1.82929e-007 -1 -1.48925e-009
    length 17.3336
    axis -3.48766 0.00143442 -0.000521554 xyz
    dof rx ry rz
  end
  begin
    id 3
    name LeftLeg
    direction -1.82929e-007 -1 -5.23717e-011
    length 14.9995
    axis 3.68178 -0.00654042 -0.000282425 xyz
    dof rx ry rz
  end
  begin
    id 4
    name LeftFoot
    direction 8.31532e-007 -4.54534e-011 1
    length 6.74421
    axis 1.87234e-006 4.66016e-005 -5.96866e-006 xyz
    dof rx ry rz
  end
  begin
    id 5
    name LeftToes
    direction 0.00818058 -0.00485161 0.999955
    length 3.85048
    axis 1.06247e-005 4.65869e-005 -5.96999e-006 xyz
    dof rx ry rz
  end
  begin
    id 6
    name SpineDummy
    direction -5.8607e-008 0.943407 -0.331637
    length 5.93572
    axis 0 0 0 xyz
  end
  begin
    id 7
    name Spine
    direction -1.04988e-007 0.999988 0.00495137
    length 10.1015
    axis -0.001389 0.000121417 6.61666e-006 xyz
    dof rx ry rz
  end
  begin
    id 8
    name Spine1
    direction 0 0 0
    length 0
    axis -0.001389 0.00012144 6.56766e-006 xyz
    dof rx ry rz
  end
  begin
    id 9
    name RightShoulderDummy
    direction -0.98348 0.17941 -0.0240696
    length 3.59882
    axis -0.001389 0.00012144 6.56766e-006 xyz
  end
  begin
    id 10
    name RightShoulder
    direction -0.978693 0.204882 0.0135597
    length 2.70001
    axis 0.215806 0.000203631 -0.00679732 xyz
    dof rx ry rz
  end
  begin
    id 11
    name RightArm
    direction -1 3.85509e-006 8.31394e-007
    length 10.2459
    axis -23.2009 -0.134239 -0.964098 xyz
    dof rx ry rz
  end
  begin
    id 12
    name RightForeArm
    direction -1 3.85569e-006 8.3129e-007
    length 8.16799
    axis -9.92322 0.0658061 0.17887 xyz
    dof rx ry rz
  end
  begin
    id 13
    name RightHand
    direction -0.992843 -0.0414604 0.112003
    length 5.28593
    axis -0.00960638 0.00330669 -0.185225 xyz
    dof rx ry rz
  end
  begin
    id 14
    name LeftShoulder1Dummy
    direction 0.983523 0.179172 -0.0240748
    length 3.59866
    axis -0.001389 0.00012144 6.56766e-006 xyz
  end
  begin
    id 15
    name LeftShoulder1
    direction 0.978627 0.205195 0.0135605
    length 2.70019
    axis -0.001389 0.00012144 6.57583e-006 xyz
    dof rx ry rz
  end
  begin
    id 16
    name LeftArm
    direction 1 3.51895e-006 -8.60188e-007
    length 10.2459
    axis -23.1894 0.134785 0.967513 xyz
    dof rx ry rz
  end
  begin
    id 17
    name LeftForeArm
    direction 1 3.51921e-006 -7.32029e-007
    length 8.16799
    axis -9.91835 -0.0656957 -0.177789 xyz
    dof rx ry rz
  end
  begin
    id 18
    name LeftHand
    direction 0.992938 -0.0411636 0.11126
    length 5.32135
    axis -0.00960237 -0.00340661 0.185177 xyz
    dof rx ry rz
  end
  begin
    id 19
    name HEadDummy
    direction 1.01974e-006 0.999861 -0.016675
    length 2.99946
    axis -0.001389 0.00012144 6.56766e-006 xyz
  end
  begin
    id 20
    name HEad
    direction -0.0222689 0.980941 0.193023
    length 5.12695
    axis -0.001389 0.00012144 6.56766e-006 xyz
    dof rx ry rz
  end
  begin
    id 21
    name RightUpLegDummy
    direction -1 2.30186e-007 8.31532e-007
    length 2.93387
    axis 0 0 0 xyz
  end
  begin
    id 22
    name RightUpLeg
    direction -1.82966e-007 -1 1.56832e-007
    length 17.3336
    axis -3.4909 -0.000906625 0.00028951 xyz
    dof rx ry rz
  end
  begin
    id 23
    name RightLeg
    direction -1.82786e-007 -1 -1.80317e-007
    length 14.9995
    axis 3.68513 0.0193739 -0.131021 xyz
    dof rx ry rz
  end
  begin
    id 24
    name RightFoot
    direction 8.31721e-007 -4.63324e-011 1
    length 6.74421
    axis 4.81691e-005 -0.120479 -0.188785 xyz
    dof rx ry rz
  end
  begin
    id 25
    name RightToes
    direction 0.00124746 -0.014064 0.9999
    length 3.85082
    axis 0.000481921 0.542163 -0.142575 xyz
    dof rx ry rz
  end
:hierarchy
  begin
    root LeftUpLegDummy SpineDummy RightUpLegDummy
    LeftUpLegDummy LeftUpLeg
    LeftUpLeg LeftLeg
    LeftLeg LeftFoot
    LeftFoot LeftToes
    SpineDummy Spine
    Spine Spine1
    Spine1 RightShoulderDummy LeftShoulder1Dummy HEadDummy
    RightShoulderDummy RightShoulder
    RightShoulder RightArm
    RightArm RightForeArm
    RightForeArm RightHand
    LeftShoulder1Dummy LeftShoulder1
    LeftShoulder1 LeftArm
    LeftArm LeftForeArm
    LeftForeArm LeftHand
    HEadDummy HEad
    RightUpLegDummy RightUpLeg
    RightUpLeg RightLeg
    RightLeg RightFoot
    RightFoot RightToes
  end

:SAMPLES-PER-SECOND 30
:FULLY-SPECIFIED
:DEGREES
186
root  -7.87618 34.5309 9.32245 13.561 71.5339 3.75989
LeftUpLeg  -10.3976 14.9391 1.33006
LeftLeg  8.58843 17.0816 1.44352
LeftFoot  6.35798 -0.103403 1.95616
LeftToes  -19.3365 6.91067e-007 1.07128e-007
Spine  2.65105 -0.693304 1.01218
Spine1  5.26152 -1.42704 1.98788
RightShoulder  -0.0119914 2.8054 3.06929
RightArm  24.9558 -47.3205 59.8744
RightForeArm  -41.0919 67.39 24.7726
RightHand  2.22542 -27.7615 -8.61627
LeftShoulder1  -0.000796789 -1.68704 -5.57378
LeftArm  28.8709 51.9052 -56.8334
LeftForeArm  -23.5767 -72.1516 -32.9871
LeftHand  0.183399 27.7364 0.372809
HEad  -10.9828 -35.6006 10.0853
RightUpLeg  -10.9864 -10.3347 2.10573
RightLeg  5.68836 8.38059 0.29475
RightFoot  2.68211 -0.00032212 0.391205
RightToes  -19.3669 -0.0780039 -0.171712
187
root  -7.92944 34.54 9.32174 13.872 71.0717 3.92154
LeftUpLeg  -10.853 14.8306 1.2254
LeftLeg  9.21939 17.5052 1.66938
LeftFoot  6.30455 -0.105007 1.99254
LeftToes  -19.3767 6.91067e-007 1.07128e-007
Spine  2.6997 -0.720746 1.12932
Spine1  5.35419 -1.48967 2.22249
RightShoulder  -0.012886 2.75294 2.9343
RightArm  26.7291 -47.5336 58.407
RightForeArm  -40.6041 69.373 27.6194
RightHand  2.70955 -28.4588 -10.284
LeftShoulder1  -0.00113916 -1.70467 -5.31221
LeftArm  31.5518 52.3338 -55.0504
LeftForeArm  -18.6159 -74.6283 -39.6434
LeftHand  0.254189 28.4733 0.63174
HEad  -10.4388 -34.5005 9.11167
RightUpLeg  -11.2081 -10.6215 2.1095
RightLeg  5.54693 9.12594 0.298302
RightFoot  2.86382 -0.00202657 0.455664
RightToes  -19.302 -0.0770358 -0.170805
188
root  -7.99731 34.5454 9.31821 14.3177 71.0426 4.31566
LeftUpLeg  -11.5113 14.4561 1.13657
LeftLeg  10.3121 17.6518 2.01755
LeftFoot  6.10452 -0.101542 1.95003
LeftToes  -19.3913 6.91067e-007 1.07128e-007
Spine  2.78911 -0.817424 1.24335
Spine1  5.52608 -1.6916 2.44667
RightShoulder  -0.0137509 2.63304 2.77866
RightArm  29.0363 -47.7713 56.3381
RightForeArm  -37.2261 71.8824 32.2541
RightHand  3.05601 -28.8676 -11.4615
LeftShoulder1  -0.00148009 -1.80237 -5.03044
LeftArm  33.8816 52.7362 -53.1659
LeftForeArm  -11.0127 -76.9336 -49.1217
LeftHand  0.321421 29.2243 0.862708
HEad  -10.1225 -33.601 8.29154
RightUpLeg  -11.3886 -11.2694 2.10168
RightLeg  5.48761 9.81163 0.31042
RightFoot  3.01595 -0.00387867 0.516874
RightToes  -19.2452 -0.0761685 -0.169745
189
root  -8.05981 34.5514 9.33019 15.0244 71.115 4.74643
LeftUpLeg  -12.5274 14.102 1.1018
LeftLeg  11.7388 17.2385 2.40084
LeftFoot  5.81233 -0.092206 1.81615
LeftToes  -19.3616 6.91067e-007 1.07128e-007
Spine  2.80511 -0.84859 1.35536
Spine1  5.55367 -1.75823 2.66626
RightShoulder  -0.014632 2.53388 2.39779
RightArm  31.6715 -48.3959 54.0571
RightForeArm  -30.3286 74.8226 40.1151
RightHand  3.37565 -29.2262 -12.5237
LeftShoulder1  -0.00181691 -1.77273 -4.81106
LeftArm  36.7232 52.9264 -50.7546
LeftForeArm  0.322646 -78.7736 -62.2029
LeftHand  0.281567 29.8736 0.685363
HEad  -9.82795 -32.9094 7.49519
RightUpLeg  -11.7369 -11.6153 2.13413
RightLeg  5.35538 10.1057 0.296413
RightFoot  3.16829 -0.00504088 0.559697
RightToes  -18.9467 -0.0754318 -0.168622
190
root  -8.1165 34.5579 9.31905 15.5819 71.3253 5.09721
LeftUpLeg  -13.4438 13.39 1.26479
LeftLeg  13.1612 15.9749 2.62963
LeftFoot  5.32732 -0.0729205 1.54153
LeftToes  -18.8409 6.91067e-007 1.07128e-007
Spine  2.88513 -0.866137 1.45673
Spine1  5.70768 -1.79896 2.86453
RightShoulder  -0.0155406 2.69015 1.85935
RightArm  34.354 -49.1324 51.7795
RightForeArm  -18.778 77.6225 52.8723
RightHand  3.77623 -29.5174 -13.8926
LeftShoulder1  -0.00214694 -1.90899 -4.45933
LeftArm  39.0029 53.2208 -48.6518
LeftForeArm  14.004 -79.7654 -76.6936
LeftHand  0.262306 29.8043 0.61557
HEad  -9.30203 -32.3033 6.70551
RightUpLeg  -12.0033 -12.0631 2.17361
RightLeg  5.21732 10.3096 0.277601
RightFoot  3.32395 -0.00634315 0.599419
RightToes  -18.7411 -0.0748554 -0.167526
191
root  -8.17436 34.5768 9.2645 16.4603 71.2997 5.66952
LeftUpLeg  -14.4088 12.2761 1.49778
LeftLeg  14.5501 14.0836 2.67326
LeftFoot  5.04851 -0.0567108 1.28633
LeftToes  -18.5106 6.91067e-007 1.07128e-007
Spine  2.94286 -0.759269 1.48928
Spine1  5.82238 -1.58496 2.92916
RightShoulder  -0.0164048 2.8709 1.33672
RightArm  37.2883 -49.7598 49.4683
RightForeArm  -2.47878 79.4839 70.6315
RightHand  4.13622 -29.7549 -15.1086
LeftShoulder1  -0.00246749 -1.95376 -4.37562
LeftArm  41.2301 53.3832 -46.1754
LeftForeArm  28.2748 -80.0247 -90.8729
LeftHand  0.0931336 29.5114 -0.0163379
HEad  -8.60997 -31.8163 6.00491
RightUpLeg  -12.4284 -12.1676 2.0426
RightLeg  5.0865 10.4369 0.257271
RightFoot  3.56591 -0.00853154 0.651171
RightToes  -18.6582 -0.0744688 -0.166547
192
root  -8.22263 34.613 9.16075 17.9359 71.1109 6.50955
LeftUpLeg  -15.5242 10.7757 1.74896
LeftLeg  15.5954 11.744 2.45715
LeftFoot  5.43185 -0.054653 1.15206
LeftToes  -20.1433 6.91067e-007 1.07128e-007
Spine  2.83713 -0.555492 1.4452
Spine1  5.6159 -1.16892 2.84802
RightShoulder  -0.0172128 3.00773 0.780849
RightArm  39.7512 -50.5047 47.5142
RightForeArm  15.7503 80.0559 89.2328
RightHand  4.56679 -29.8978 -16.6147
LeftShoulder1  -0.00277588 -1.81965 -4.16747
LeftArm  43.1511 53.5588 -44.0388
LeftForeArm  40.1368 -79.7851 -102.383
LeftHand  -0.0177255 29.0664 -0.438222
HEad  -7.80905 -31.5414 5.3209
RightUpLeg  -13.3425 -12.3974 1.82065
RightLeg  5.18613 10.7986 0.284812
RightFoot  3.79732 -0.0118468 0.718271
RightToes  -18.3342 -0.0743017 -0.165775
193
root  -8.29766 34.646 9.03138 19.3493 70.8756 7.69773
LeftUpLeg  -16.015 9.20605 2.16338
LeftLeg  16.0703 8.88529 1.94127
LeftFoot  6.3235 -0.0558562 1.01114
LeftToes  -23.1842 6.91067e-007 1.07128e-007
Spine  2.84333 -0.355756 1.30666
Spine1  5.63115 -0.761744 2.58141
RightShoulder  -0.0179407 3.03578 0.343737
RightArm  41.3595 -50.9172 45.9844
RightForeArm  32.8944 79.6215 106.635
RightHand  4.9061 -30.3483 -17.579
LeftShoulder1  -0.00306943 -1.84556 -3.91836
LeftArm  44.2736 54.0129 -42.2133
LeftForeArm  53.3242 -79.0488 -114.399
LeftHand  -0.0618354 28.5559 -0.612788
HEad  -7.12355 -31.1991 4.7229
RightUpLeg  -13.9967 -12.8137 1.40196
RightLeg  5.45208 11.3168 0.350628
RightFoot  3.96112 -0.0153993 0.786493
RightToes  -18.2335 -0.074384 -0.165299
194
root  -8.36966 34.6961 8.95231 21.2549 70.8595 9.06251
LeftUpLeg  -16.4666 7.70247 2.78137
LeftLeg  15.7433 5.07449 1.08094
LeftFoot  7.21876 -0.0413922 0.65618
LeftToes  -25.0983 6.91067e-007 1.07128e-007
Spine  2.71545 -0.253866 1.13623
Spine1  5.37867 -0.545912 2.24557
RightShoulder  -0.0186071 3.01611 -0.0478581
RightArm  42.6446 -51.1799 44.9124
RightForeArm  43.0858 78.8846 116.638
RightHand  4.97451 -30.5931 -17.6754
LeftShoulder1  -0.00334546 -1.91872 -3.70367
LeftArm  45.4649 54.6209 -40.2269
LeftForeArm  62.1984 -78.4106 -120.637
LeftHand  -0.153129 27.8123 -0.98819
HEad  -6.81119 -30.7439 4.17964
RightUpLeg  -14.7446 -13.0332 1.07454
RightLeg  5.31097 11.4402 0.326383
RightFoot  4.33153 -0.0200775 0.869204
RightToes  -18.1165 -0.0747451 -0.16521
195
root  -8.45664 34.7095 8.86018 21.9211 70.9317 9.79699
LeftUpLeg  -16.2426 6.58855 3.75321
LeftLeg  15.2768 1.06944 0.217632
LeftFoot  7.5389 -0.00968147 0.146937
LeftToes  -24.8981 6.91067e-007 1.07128e-007
Spine  2.77302 -0.23712 1.03229
Spine1  5.49064 -0.508986 2.04078
RightShoulder  -0.0192612 3.18452 -0.362757
RightArm  43.2203 -51.0333 44.3545
RightForeArm  50.479 78.0994 123.495
RightHand  5.10769 -30.8533 -17.9898
LeftShoulder1  -0.00360128 -1.81333 -3.6537
LeftArm  46.4157 54.7267 -38.5933
LeftForeArm  68.0957 -77.8115 -125.156
LeftHand  -0.314842 27.4454 -1.65881
HEad  -6.94185 -30.2393 3.59822
RightUpLeg  -14.8565 -13.3037 0.824948
RightLeg  5.18139 11.5341 0.303094
RightFoot  4.5631 -0.0231151 0.923055
RightToes  -18.1405 -0.0754149 -0.165597
196
root  -8.54723 34.7161 8.74313 22.3107 70.9573 10.5984
LeftUpLeg  -15.6749 6.05138 4.51685
LeftLeg  14.7537 0.179996 0.0335036
LeftFoot  8.23913 -0.00222774 0.0309214
LeftToes  -23.9435 6.91067e-007 1.07128e-007
Spine  2.92117 -0.223232 0.897399
Spine1  5.78554 -0.47926 1.77597
RightShoulder  -0.0198637 3.30352 -0.408194
RightArm  43.4675 -50.6554 43.8536
RightForeArm  56.2979 76.9984 130.415
RightHand  5.6578 -31.2578 -19.6607
LeftShoulder1  -0.00383422 -1.79694 -3.70703
LeftArm  47.3118 54.4903 -36.9714
LeftForeArm  75.077 -76.7772 -131.213
LeftHand  -0.421359 27.343 -2.10155
HEad  -7.18481 -29.8139 3.2195
RightUpLeg  -14.6508 -13.6714 0.44073
RightLeg  5.05284 11.8032 0.283775
RightFoot  4.83259 -0.0279103 1.00037
RightToes  -18.6895 -0.0764229 -0.166551
197
root  -8.64658 34.7271 8.62471 22.8747 71.1736 11.2275
LeftUpLeg  -15.3163 6.02053 5.17877
LeftLeg  13.9924 1.84362 0.333707
LeftFoot  9.2157 -0.0246154 0.305408
LeftToes  -21.6296 6.91067e-007 1.07128e-007
Spine  2.94948 -0.253923 0.829309
Spine1  5.84309 -0.539263 1.64312
RightShoulder  -0.020356 3.18519 -0.706094
RightArm  43.1793 -50.4548 43.8112
RightForeArm  59.7184 75.9199 135.499
RightHand  6.36968 -32.0356 -21.5647
LeftShoulder1  -0.0040416 -1.82198 -3.44822
LeftArm  47.8577 54.2297 -35.902
LeftForeArm  79.5367 -75.9757 -134.916
LeftHand  -0.644228 27.6122 -2.99044
HEad  -7.34722 -29.4654 2.59482
RightUpLeg  -14.6866 -13.6955 0.181008
RightLeg  4.75095 11.5238 0.216734
RightFoot  5.17922 -0.0308513 1.04467
RightToes  -18.9296 -0.0777988 -0.168161
198
root  -8.72445 34.7415 8.4872 23.5731 71.3741 11.9207
LeftUpLeg  -14.7861 6.48954 5.58066
LeftLeg  12.9939 4.55725 0.744934
LeftFoot  10.627 -0.0799001 0.859074
LeftToes  -20.0146 6.91067e-007 1.07128e-007
Spine  2.93276 -0.317637 0.741547
Spine1  5.81205 -0.660129 1.47382
RightShoulder  -0.0207933 3.05317 -0.927572
RightArm  43.2127 -50.3831 43.6534
RightForeArm  62.8015 74.833 139.559
RightHand  6.83398 -31.9241 -23.2082
LeftShoulder1  -0.00422073 -1.78825 -3.3489
LeftArm  49.139 53.9245 -33.9869
LeftForeArm  83.8637 -74.7304 -139.589
LeftHand  -0.725772 27.9569 -3.28418
HEad  -6.97769 -28.8858 1.99877
RightUpLeg  -14.8375 -13.8061 -0.125623
RightLeg  4.58544 11.3597 0.181034
RightFoot  5.48786 -0.0341371 1.08967
RightToes  -19.4542 -0.0795723 -0.172419
199
root  -8.80041 34.7509 8.3207 24.0853 71.5308 12.4139
LeftUpLeg  -14.4278 7.59468 5.68762
LeftLeg  12.6661 7.34971 1.15722
LeftFoot  11.2015 -0.143098 1.45915
LeftToes  -18.1915 6.91067e-007 1.07128e-007
Spine  2.93079 -0.372011 0.691095
Spine1  5.81169 -0.762348 1.39036
RightShoulder  -0.0211861 2.96034 -1.07475
RightArm  43.2117 -50.3305 43.4442
RightForeArm  65.179 73.7735 142.82
RightHand  7.34711 -31.7751 -25.0489
LeftShoulder1  -0.00436893 -1.83827 -3.12208
LeftArm  50.2348 53.6251 -32.3891
LeftForeArm  88.1815 -73.3129 -143.785
LeftHand  -0.781717 27.9821 -3.50579
HEad  -6.61859 -28.2905 1.60864
RightUpLeg  -15.0051 -13.7378 -0.441214
RightLeg  4.42213 11.0685 0.145032
RightFoot  5.83243 -0.0381544 1.12639
RightToes  -20.0564 -0.0817731 -0.177275
200
root  -8.87639 34.7485 8.12749 24.3816 71.7695 12.7207
LeftUpLeg  -14.136 8.99704 5.55332
LeftLeg  12.8928 9.59415 1.5467
LeftFoot  11.1579 -0.185989 1.90389
LeftToes  -16.7596 6.91067e-007 1.07128e-007
Spine  2.93043 -0.487681 0.680345
Spine1  5.81526 -0.987907 1.40189
RightShoulder  -0.02154 2.88166 -0.981243
RightArm  42.968 -50.042 43.1926
RightForeArm  66.4341 73.0825 144.669
RightHand  7.84281 -31.7489 -26.7304
LeftShoulder1  -0.00448353 -1.91886 -2.8644
LeftArm  50.7799 53.3724 -31.3094
LeftForeArm  91.2445 -72.1605 -146.586
LeftHand  -0.758981 27.8338 -3.43149
HEad  -6.1061 -27.5708 1.15828
RightUpLeg  -15.1046 -13.4983 -0.756002
RightLeg  4.2004 10.5041 0.0971945
RightFoot  6.19819 -0.0402971 1.13286
RightToes  -20.9533 -0.0868363 -0.184442
